<svg xmlns="http://www.w3.org/2000/svg" width="32" height="32" viewBox="0 0 32 32">
  <g id="Group_866" data-name="Group 866" transform="translate(-874 -749.787)">
    <circle id="Ellipse_56" data-name="Ellipse 56" cx="16" cy="16" r="16" transform="translate(874 749.787)" fill="#c41d24"/>
    <g id="cancel_1_" data-name="cancel (1)" transform="translate(884.596 760.596)">
      <g id="Group_848" data-name="Group 848">
        <path id="Path_2689" data-name="Path 2689" d="M6.465,5.313l3.962-3.962a.581.581,0,0,0,0-.819L10.079.185a.581.581,0,0,0-.82,0L5.3,4.147,1.336.185a.581.581,0,0,0-.819,0L.17.532a.58.58,0,0,0,0,.819L4.131,5.313.17,9.275a.581.581,0,0,0,0,.82l.347.347a.581.581,0,0,0,.819,0L5.3,6.48l3.962,3.962a.575.575,0,0,0,.41.169h0a.575.575,0,0,0,.41-.169l.347-.347a.581.581,0,0,0,0-.82Z" transform="translate(0 -0.016)" fill="#fff"/>
      </g>
    </g>
  </g>
</svg>
