<svg xmlns="http://www.w3.org/2000/svg" width="24.058" height="24.033" viewBox="0 0 24.058 24.033">
  <g id="pencil_3_" data-name="pencil (3)" transform="translate(0 -0.247)">
    <path id="Path_2696" data-name="Path 2696" d="M14.857,82.473,1.62,95.711a.528.528,0,0,0-.138.242L.015,101.842a.521.521,0,0,0,.505.647.518.518,0,0,0,.126-.016l5.889-1.467a.521.521,0,0,0,.242-.137L20.015,87.631Zm0,0" transform="translate(0 -78.209)" fill="#e7ba19"/>
    <path id="Path_2697" data-name="Path 2697" d="M341.291,2.458,339.818.985a2.668,2.668,0,0,0-3.685,0l-1.8,1.8,5.158,5.158,1.8-1.8a2.606,2.606,0,0,0,0-3.685Zm0,0" transform="translate(-317.997 0)" fill="#e7ba19"/>
  </g>
</svg>
