<svg xmlns="http://www.w3.org/2000/svg" width="16.375" height="16.374" viewBox="0 0 16.375 16.374">
  <g id="cancel_1_" data-name="cancel (1)" transform="translate(0 -0.016)">
    <g id="Сгруппировать_1031" data-name="Сгруппировать 1031" transform="translate(0 0.016)">
      <path id="Контур_2702" data-name="Контур 2702" d="M9.991,8.2,16.114,2.08a.9.9,0,0,0,0-1.266L15.577.277a.9.9,0,0,0-1.267,0L8.188,6.4,2.065.277A.9.9,0,0,0,.8.277L.262.814a.9.9,0,0,0,0,1.266L6.385,8.2.262,14.325a.9.9,0,0,0,0,1.267l.537.536a.9.9,0,0,0,1.266,0l6.123-6.122,6.122,6.122a.889.889,0,0,0,.633.261h0a.889.889,0,0,0,.633-.261l.537-.536a.9.9,0,0,0,0-1.267Z" transform="translate(0 -0.016)" fill="#fff"/>
    </g>
  </g>
</svg>
