<svg xmlns="http://www.w3.org/2000/svg" width="698" height="36.477" viewBox="0 0 698 36.477">
                <g id="Сгруппировать_828" data-name="Сгруппировать 828" opacity="0.496" style="mix-blend-mode: multiply;isolation: isolate">
                    <path id="Контур_2648" data-name="Контур 2648" d="M15.643,132.418c36.02,2.383,71.907,5.853,106.461,9.721s67.773,8.129,98.458,12.092c61.369,7.928,112.6,14.664,144.079,14.664,39.412,0,86.288-6.736,143.5-14.664,28.6-3.963,59.794-8.226,93.925-12.092s71.2-7.337,111.577-9.721h-698Z" transform="translate(-15.643 -132.418)" fill="#fff"/>
                    <path id="Контур_2649" data-name="Контур 2649" d="M15.643,132.418c35.849,2.305,71.57,5.669,106,9.427,31.348,3.427,61.621,7.18,89.937,10.758l8.1,1.025c34.559,4.393,65.976,8.433,92.51,11.188,20.055,2.075,37.276,3.377,50.926,3.443,12.389.064,25.486-.523,39.39-1.634,12.13-.965,24.86-2.319,38.228-3.98,12.232-1.521,24.988-3.281,38.356-5.109q13.65-1.864,28.128-3.843,7.056-.958,14.312-1.934c24.823-3.329,51.436-6.756,80.042-9.9q18.981-2.084,39.143-3.969c23.095-2.136,47.375-4.016,72.928-5.471h-698Z" transform="translate(-15.643 -132.418)" fill="#fbfbfb"/>
                    <path id="Контур_2650" data-name="Контур 2650" d="M15.643,132.418c35.677,2.229,71.233,5.483,105.538,9.132,31.174,3.326,61.309,6.978,89.551,10.475l8.063,1c34.3,4.289,65.574,8.253,92.107,11.046,19.878,2.076,37.007,3.422,50.686,3.551,12.461.13,25.61-.388,39.555-1.463q18.314-1.4,38.393-3.969c12.3-1.565,25.1-3.391,38.506-5.218q13.725-1.868,28.253-3.813,7.094-.947,14.381-1.9c25-3.275,51.74-6.618,80.4-9.679q19.089-2.026,39.318-3.857c23.24-2.075,47.628-3.894,73.246-5.3h-698Z" transform="translate(-15.643 -132.418)" fill="#f7f7f7"/>
                    <path id="Контур_2651" data-name="Контур 2651" d="M15.643,132.418c35.506,2.153,70.894,5.3,105.076,8.838,31,3.226,61,6.775,89.165,10.19q4.04.49,8.029.979c34.034,4.182,65.172,8.073,91.7,10.9,19.7,2.081,36.738,3.467,50.448,3.662,12.533.2,25.734-.255,39.72-1.292q18.431-1.354,38.558-3.962c12.376-1.607,25.2-3.5,38.655-5.326q13.8-1.875,28.379-3.785,7.128-.931,14.448-1.872c25.183-3.22,52.044-6.479,80.764-9.454q19.2-1.972,39.492-3.746c23.388-2.013,47.883-3.773,73.565-5.132h-698Z" transform="translate(-15.643 -132.418)" fill="#f3f3f3"/>
                    <path id="Контур_2652" data-name="Контур 2652" d="M15.643,132.418c35.335,2.076,70.557,5.113,104.616,8.543,30.826,3.127,60.684,6.573,88.778,9.907q4.02.479,7.992.955c33.772,4.077,64.769,7.894,91.3,10.758,19.524,2.082,36.468,3.511,50.208,3.771,12.6.261,25.857-.121,39.886-1.123q18.547-1.306,38.723-3.953c12.445-1.649,25.309-3.605,38.805-5.435q13.868-1.88,28.5-3.755,7.166-.917,14.516-1.841c25.364-3.166,52.349-6.341,81.127-9.229q19.3-1.916,39.667-3.634c23.534-1.952,48.135-3.654,73.883-4.965h-698Z" transform="translate(-15.643 -132.418)" fill="#efefef"/>
                    <path id="Контур_2653" data-name="Контур 2653" d="M15.643,132.418c35.163,2,70.219,4.927,104.154,8.249,30.652,3.025,60.374,6.371,88.393,9.622q4,.465,7.955.931c33.509,3.972,64.367,7.714,90.893,10.614,19.347,2.085,36.2,3.556,49.968,3.881,12.677.327,25.982.013,40.051-.952q18.667-1.257,38.888-3.944c12.516-1.691,25.417-3.713,38.955-5.543q13.943-1.884,28.626-3.725,7.2-.906,14.585-1.811c25.546-3.112,52.653-6.2,81.489-9.006q19.411-1.857,39.841-3.521c23.681-1.89,48.39-3.533,74.2-4.8h-698Z" transform="translate(-15.643 -132.418)" fill="#ebebeb"/>
                    <path id="Контур_2654" data-name="Контур 2654" d="M15.643,132.418c34.992,1.922,69.882,4.743,103.693,7.955,30.48,2.924,60.062,6.167,88.007,9.337q3.982.454,7.919.907c33.247,3.867,63.964,7.534,90.487,10.472,19.17,2.087,35.93,3.6,49.73,3.99,12.749.391,26.106.147,40.216-.781,12.522-.808,25.566-2.1,39.053-3.936,12.588-1.734,25.524-3.819,39.105-5.653q14.017-1.889,28.752-3.695,7.24-.89,14.651-1.778c25.727-3.059,52.958-6.066,81.851-8.782q19.519-1.8,40.016-3.41,35.741-2.743,74.52-4.626h-698Z" transform="translate(-15.643 -132.418)" fill="#e6e6e6"/>
                    <path id="Контур_2655" data-name="Контур 2655" d="M15.643,132.418c34.821,1.845,69.543,4.557,103.231,7.66,30.306,2.826,59.75,5.966,87.622,9.054q3.962.443,7.883.883c32.985,3.762,63.562,7.354,90.082,10.328,18.993,2.09,35.66,3.644,49.49,4.1,12.822.457,26.23.282,40.382-.61,12.6-.775,25.706-2.052,39.216-3.927,12.659-1.776,25.631-3.927,39.257-5.761q14.089-1.893,28.875-3.667,7.278-.877,14.72-1.746c25.907-3.005,53.263-5.928,82.213-8.558q19.624-1.747,40.192-3.3,35.96-2.649,74.838-4.456h-698Z" transform="translate(-15.643 -132.418)" fill="#e2e2e2"/>
                    <path id="Контур_2656" data-name="Контур 2656" d="M15.643,132.418c34.649,1.769,69.206,4.371,102.769,7.366,30.132,2.724,59.439,5.762,87.237,8.769q3.942.429,7.846.859c32.723,3.657,63.161,7.174,89.677,10.184,18.817,2.093,35.392,3.689,49.252,4.211a402.043,402.043,0,0,0,40.547-.441c12.68-.743,25.847-2.007,39.381-3.918,12.731-1.818,25.739-4.035,39.406-5.868q14.163-1.9,29-3.636,7.314-.863,14.787-1.716c26.087-2.951,53.567-5.791,82.574-8.334q19.732-1.691,40.366-3.185,36.18-2.559,75.157-4.289h-698Z" transform="translate(-15.643 -132.418)" fill="#dedede"/>
                    <path id="Контур_2657" data-name="Контур 2657" d="M15.643,132.418c34.478,1.691,68.869,4.187,102.309,7.072,29.958,2.623,59.127,5.56,86.85,8.484l7.81.835c32.46,3.553,62.757,6.994,89.273,10.042,18.64,2.094,35.122,3.732,49.012,4.319a395.36,395.36,0,0,0,40.712-.268c12.758-.714,25.988-1.964,39.546-3.911,12.8-1.86,25.847-4.142,39.556-5.978,9.491-1.27,19.2-2.452,29.125-3.606q7.352-.85,14.855-1.685c26.269-2.9,53.871-5.653,82.936-8.109q19.84-1.635,40.541-3.074,36.4-2.467,75.475-4.119h-698Z" transform="translate(-15.643 -132.418)" fill="#dadada"/>
                    <path id="Контур_2658" data-name="Контур 2658" d="M15.643,132.418c34.307,1.614,68.531,4,101.847,6.777,29.785,2.524,58.815,5.357,86.465,8.2q3.9.4,7.774.812c32.2,3.445,62.356,6.813,88.868,9.9,18.463,2.1,34.852,3.777,48.772,4.429a389.179,389.179,0,0,0,40.878-.1c12.836-.681,26.129-1.919,39.709-3.9,12.875-1.9,25.955-4.251,39.706-6.087,9.539-1.273,19.293-2.443,29.251-3.578q7.388-.836,14.922-1.653,39.674-4.265,83.3-7.885,19.946-1.581,40.715-2.963,36.621-2.374,75.794-3.95h-698Z" transform="translate(-15.643 -132.418)" fill="#d6d6d6"/>
                    <path id="Контур_2659" data-name="Контур 2659" d="M15.643,132.418c34.135,1.538,68.193,3.816,101.386,6.483,29.612,2.422,58.5,5.155,86.08,7.916q3.883.394,7.736.788c31.936,3.34,61.954,6.633,88.463,9.754,18.286,2.1,34.584,3.821,48.534,4.537a382.958,382.958,0,0,0,41.043.072c12.914-.649,26.27-1.874,39.876-3.891,12.944-1.946,26.06-4.357,39.856-6.2,9.587-1.277,19.383-2.433,29.374-3.548q7.427-.823,14.991-1.622,39.944-4.187,83.661-7.663,20.052-1.522,40.889-2.85,36.839-2.282,76.112-3.782h-698Z" transform="translate(-15.643 -132.418)" fill="#d2d2d2"/>
                    <path id="Контур_2660" data-name="Контур 2660" d="M15.643,132.418c33.964,1.46,67.855,3.63,100.924,6.189,29.438,2.322,58.191,4.951,85.695,7.631l7.7.764c31.673,3.235,61.551,6.453,88.058,9.61,18.109,2.1,34.314,3.866,48.3,4.648a377.867,377.867,0,0,0,41.207.243,394.576,394.576,0,0,0,40.04-3.884c13.016-1.988,26.168-4.465,40.006-6.3,9.637-1.279,19.475-2.422,29.5-3.518q7.465-.809,15.059-1.59,40.216-4.106,84.023-7.438,20.16-1.468,41.063-2.739,37.061-2.19,76.431-3.613h-698Z" transform="translate(-15.643 -132.418)" fill="#cecece"/>
                    <path id="Контур_2661" data-name="Контур 2661" d="M15.643,132.418c33.793,1.384,67.518,3.445,100.462,5.894,29.264,2.223,57.881,4.75,85.309,7.348q3.845.369,7.663.74c31.411,3.13,61.149,6.273,87.655,9.467,17.931,2.1,34.045,3.909,48.055,4.758a372.776,372.776,0,0,0,41.373.412,377.675,377.675,0,0,0,40.2-3.875c13.088-2.03,26.275-4.573,40.156-6.413,9.686-1.283,19.566-2.413,29.624-3.49q7.5-.8,15.126-1.559,40.488-4.025,84.384-7.213,20.265-1.412,41.238-2.628,37.279-2.1,76.749-3.443h-698Z" transform="translate(-15.643 -132.418)" fill="#cacaca"/>
                    <path id="Контур_2662" data-name="Контур 2662" d="M15.643,132.418c33.622,1.307,67.181,3.26,100,5.6,29.09,2.121,57.568,4.546,84.923,7.063q3.825.358,7.627.716c31.149,3.025,60.747,6.093,87.249,9.324,17.755,2.106,33.776,3.954,47.817,4.867a367.609,367.609,0,0,0,41.538.583,362.115,362.115,0,0,0,40.369-3.866c13.158-2.072,26.382-4.68,40.307-6.522,9.734-1.285,19.656-2.4,29.747-3.458q7.539-.782,15.2-1.529,40.758-3.944,84.746-6.988,20.373-1.358,41.412-2.517,37.5-2,77.068-3.274h-698Z" transform="translate(-15.643 -132.418)" fill="#c6c6c6"/>
                    <path id="Контур_2663" data-name="Контур 2663" d="M15.643,132.418c33.45,1.231,66.842,3.074,99.541,5.306,28.917,2.021,57.256,4.344,84.537,6.778q3.807.344,7.591.693c30.886,2.92,60.344,5.913,86.844,9.181,17.578,2.108,33.507,4,47.577,4.977a363.46,363.46,0,0,0,41.7.754,348.641,348.641,0,0,0,40.534-3.858c13.23-2.114,26.49-4.788,40.457-6.63,9.784-1.289,19.747-2.394,29.873-3.43q7.575-.769,15.261-1.5,41.03-3.863,85.108-6.765,20.481-1.3,41.587-2.4,37.72-1.913,77.386-3.106h-698Z" transform="translate(-15.643 -132.418)" fill="#c2c2c2"/>
                    <path id="Контур_2664" data-name="Контур 2664" d="M15.643,132.418c33.279,1.153,66.5,2.889,99.079,5.011,28.744,1.922,56.946,4.142,84.152,6.5q3.786.333,7.553.669c30.624,2.815,59.942,5.735,86.441,9.037,17.4,2.111,33.237,4.043,47.337,5.086a358.9,358.9,0,0,0,41.869.925,336.057,336.057,0,0,0,40.7-3.849c13.3-2.156,26.6-4.894,40.607-6.738,9.833-1.294,19.839-2.385,30-3.4q7.611-.753,15.33-1.466,41.3-3.782,85.47-6.54,20.587-1.243,41.761-2.292,37.94-1.821,77.705-2.936h-698Z" transform="translate(-15.643 -132.418)" fill="#bdbdbd"/>
                    <path id="Контур_2665" data-name="Контур 2665" d="M15.643,132.418c33.108,1.076,66.168,2.7,98.617,4.717,28.57,1.82,56.634,3.939,83.767,6.21q3.768.322,7.517.646c30.362,2.709,59.541,5.554,86.035,8.893,17.225,2.112,32.968,4.086,47.1,5.2a354.936,354.936,0,0,0,42.034,1.094,324.312,324.312,0,0,0,40.862-3.84c13.374-2.2,26.706-5,40.759-6.847,9.88-1.3,19.929-2.374,30.12-3.37q7.649-.742,15.4-1.434,41.574-3.7,85.833-6.317,20.695-1.189,41.937-2.181,38.159-1.729,78.023-2.767h-698Z" transform="translate(-15.643 -132.418)" fill="#b9b9b9"/>
                    <path id="Контур_2666" data-name="Контур 2666" d="M15.643,132.418c32.935,1,65.829,2.518,98.156,4.423,28.4,1.719,56.322,3.735,83.382,5.925q3.748.308,7.481.622c30.1,2.6,59.137,5.374,85.63,8.749,17.046,2.115,32.7,4.131,46.859,5.3a351.185,351.185,0,0,0,42.2,1.267,314.293,314.293,0,0,0,41.027-3.831c13.444-2.241,26.812-5.111,40.908-6.957,9.929-1.3,20.02-2.365,30.246-3.341q7.685-.728,15.465-1.4,41.844-3.622,86.194-6.093,20.8-1.131,42.111-2.069,38.381-1.635,78.342-2.6h-698Z" transform="translate(-15.643 -132.418)" fill="#b5b5b5"/>
                    <path id="Контур_2667" data-name="Контур 2667" d="M15.643,132.418c32.764.922,65.491,2.334,97.7,4.128,28.223,1.62,56.009,3.535,82.995,5.642q3.728.3,7.444.6c29.837,2.5,58.736,5.194,85.225,8.607,16.871,2.117,32.432,4.176,46.621,5.414a347.667,347.667,0,0,0,42.365,1.436,304.338,304.338,0,0,0,41.192-3.822c13.515-2.283,26.918-5.218,41.057-7.066,9.979-1.3,20.112-2.355,30.371-3.311q7.723-.713,15.534-1.372,42.113-3.541,86.555-5.868,20.908-1.077,42.286-1.956,38.6-1.545,78.66-2.43h-698Z" transform="translate(-15.643 -132.418)" fill="#b1b1b1"/>
                    <path id="Контур_2668" data-name="Контур 2668" d="M15.643,132.418c32.594.845,65.154,2.148,97.234,3.834,28.049,1.518,55.7,3.331,82.61,5.357q3.71.283,7.408.574c29.575,2.394,58.332,5.014,84.821,8.463,16.694,2.121,32.162,4.221,46.381,5.524a344.043,344.043,0,0,0,42.53,1.607,295.381,295.381,0,0,0,41.357-3.813c13.587-2.325,27.026-5.326,41.207-7.174,10.028-1.306,20.2-2.346,30.5-3.281q7.759-.7,15.6-1.342,42.386-3.46,86.918-5.644,21.016-1.021,42.46-1.845,38.82-1.452,78.979-2.26h-698Z" transform="translate(-15.643 -132.418)" fill="#adadad"/>
                    <path id="Контур_2669" data-name="Контур 2669" d="M15.643,132.418c32.421.769,64.817,1.962,96.772,3.541,27.876,1.418,55.387,3.128,82.223,5.073q3.692.272,7.373.55c29.311,2.289,57.931,4.834,84.416,8.321,16.516,2.123,31.892,4.265,46.141,5.633a341.218,341.218,0,0,0,42.7,1.778,287.059,287.059,0,0,0,41.521-3.806c13.657-2.367,27.133-5.432,41.358-7.282,10.076-1.31,20.293-2.337,30.619-3.253q7.8-.688,15.669-1.31c28.438-2.253,57.526-4,87.279-5.42q21.124-.965,42.635-1.733,39.04-1.36,79.3-2.091h-698Z" transform="translate(-15.643 -132.418)" fill="#a9a9a9"/>
                    <path id="Контур_2670" data-name="Контур 2670" d="M15.643,132.418c32.25.693,64.478,1.778,96.31,3.245,27.7,1.319,55.075,2.926,81.838,4.789q3.672.261,7.336.526c29.05,2.184,57.529,4.654,84.011,8.177,16.34,2.126,31.624,4.31,45.9,5.743a338.012,338.012,0,0,0,42.862,1.949,279.346,279.346,0,0,0,41.685-3.8c13.729-2.409,27.241-5.54,41.508-7.391,10.125-1.312,20.384-2.326,30.745-3.223q7.834-.672,15.736-1.277c28.618-2.2,57.829-3.864,87.64-5.2q21.23-.908,42.809-1.62,39.26-1.268,79.616-1.923h-698Z" transform="translate(-15.643 -132.418)" fill="#a5a5a5"/>
                    <path id="Контур_2671" data-name="Контур 2671" d="M15.643,132.418c32.079.615,64.141,1.592,95.849,2.951,27.529,1.217,54.763,2.724,81.452,4.5q3.654.247,7.3.5c28.788,2.078,57.126,4.473,83.606,8.031,16.162,2.129,31.354,4.355,45.665,5.854a335.207,335.207,0,0,0,43.025,2.118,272.157,272.157,0,0,0,41.85-3.788c13.8-2.451,27.349-5.648,41.658-7.5,10.175-1.316,20.476-2.316,30.87-3.194q7.872-.659,15.8-1.246c28.8-2.147,58.134-3.726,88-4.972q21.336-.854,42.983-1.509,39.478-1.176,79.934-1.754h-698Z" transform="translate(-15.643 -132.418)" fill="#a1a1a1"/>
                    <path id="Контур_2672" data-name="Контур 2672" d="M15.643,132.418c31.907.538,63.8,1.406,95.388,2.658,27.355,1.117,54.452,2.52,81.066,4.22q3.633.236,7.264.48c28.524,1.973,56.723,4.293,83.2,7.889,15.985,2.13,31.084,4.4,45.425,5.963a332.871,332.871,0,0,0,43.19,2.289,265.441,265.441,0,0,0,42.015-3.78c13.873-2.493,27.457-5.755,41.809-7.609,10.221-1.318,20.566-2.305,30.993-3.163q7.91-.645,15.873-1.216c28.979-2.093,58.439-3.589,88.366-4.747q21.443-.8,43.158-1.4,39.7-1.084,80.252-1.584h-698Z" transform="translate(-15.643 -132.418)" fill="#9d9d9d"/>
                    <path id="Контур_2673" data-name="Контур 2673" d="M15.643,132.418c31.736.462,63.466,1.222,94.927,2.362,27.181,1.018,54.14,2.319,80.681,3.936q3.613.223,7.227.456c28.263,1.866,56.322,4.113,82.8,7.745,15.81,2.133,30.816,4.443,45.186,6.072a330.149,330.149,0,0,0,43.356,2.46,259.163,259.163,0,0,0,42.178-3.771c13.943-2.535,27.563-5.862,41.959-7.717,10.271-1.322,20.657-2.3,31.119-3.134q7.946-.632,15.939-1.184c29.162-2.039,58.745-3.449,88.728-4.524q21.552-.742,43.332-1.286,39.919-.989,80.571-1.415h-698Z" transform="translate(-15.643 -132.418)" fill="#999"/>
                    <path id="Контур_2674" data-name="Контур 2674" d="M15.643,132.418c31.565.385,63.128,1.036,94.465,2.069,27.007.916,53.828,2.115,80.3,3.651q3.6.211,7.191.432c28,1.761,55.919,3.933,82.392,7.6,15.631,2.135,30.546,4.486,44.947,6.182a327.831,327.831,0,0,0,43.521,2.629,253.288,253.288,0,0,0,42.343-3.761c14.015-2.578,27.671-5.97,42.109-7.826,10.32-1.327,20.75-2.287,31.243-3.106,5.323-.412,10.661-.785,16.007-1.153,29.342-1.985,59.049-3.311,89.09-4.3q21.657-.686,43.508-1.174,40.137-.9,80.889-1.247h-698Z" transform="translate(-15.643 -132.418)" fill="#949494"/>
                    <path id="Контур_2675" data-name="Контур 2675" d="M15.643,132.418c31.394.307,62.79.851,94,1.773q40.252,1.225,79.91,3.368,3.575.2,7.155.408c27.737,1.656,55.516,3.753,81.986,7.459,15.456,2.138,30.278,4.531,44.708,6.291a325.641,325.641,0,0,0,43.686,2.8,247.944,247.944,0,0,0,42.509-3.753c14.086-2.622,27.777-6.078,42.257-7.936,10.37-1.328,20.842-2.277,31.369-3.074,5.347-.4,10.707-.768,16.075-1.123,29.522-1.931,59.352-3.173,89.451-4.074q21.765-.632,43.681-1.063,40.36-.807,81.208-1.078h-698Z" transform="translate(-15.643 -132.418)" fill="#909090"/>
                    <path id="Контур_2676" data-name="Контур 2676" d="M15.643,132.418c31.222.231,62.453.666,93.542,1.479q39.991,1.075,79.525,3.083,3.555.187,7.117.384c27.476,1.551,55.116,3.575,81.583,7.316,15.277,2.139,30.008,4.575,44.468,6.4a323.348,323.348,0,0,0,43.852,2.971,242.594,242.594,0,0,0,42.673-3.744c14.156-2.664,27.884-6.186,42.409-8.043,10.418-1.333,20.932-2.268,31.492-3.046,5.371-.394,10.755-.746,16.142-1.09,29.7-1.878,59.657-3.037,89.814-3.852q21.873-.573,43.857-.95,40.578-.715,81.526-.908h-698Z" transform="translate(-15.643 -132.418)" fill="#8c8c8c"/>
                    <path id="Контур_2677" data-name="Контур 2677" d="M15.643,132.418c31.051.154,62.116.48,93.081,1.186q39.73.922,79.138,2.8,3.537.175,7.081.36c27.212,1.447,54.712,3.4,81.178,7.173,15.1,2.142,29.738,4.62,44.229,6.51a321.2,321.2,0,0,0,44.017,3.142,237.7,237.7,0,0,0,42.838-3.735c14.228-2.706,27.992-6.293,42.559-8.151,10.467-1.336,21.023-2.259,31.616-3.017q8.094-.576,16.211-1.058c29.885-1.824,59.962-2.9,90.175-3.628q21.979-.517,44.031-.839,40.8-.621,81.845-.739h-698Z" transform="translate(-15.643 -132.418)" fill="#888"/>
                    <path id="Контур_2678" data-name="Контур 2678" d="M15.643,132.418c30.88.076,61.777.3,92.62.89,26.313.516,52.581,1.306,78.753,2.515q3.517.162,7.045.337c26.95,1.34,54.309,3.214,80.772,7.029,14.925,2.144,29.47,4.663,43.99,6.619a319.608,319.608,0,0,0,44.182,3.313,233.21,233.21,0,0,0,43-3.728c14.3-2.748,28.1-6.4,42.709-8.261,10.515-1.339,21.114-2.248,31.742-2.986,5.42-.376,10.85-.708,16.279-1.028,30.065-1.77,60.266-2.761,90.536-3.4q22.087-.463,44.206-.727,41.019-.531,82.163-.571h-698Z" transform="translate(-15.643 -132.418)" fill="#848484"/>
                    <path id="Контур_2679" data-name="Контур 2679" d="M15.643,132.418c56.839,0,113.758.375,170.526,2.827,28.917,1.249,58.595,3.008,87.376,7.2,14.747,2.147,29.2,4.708,43.75,6.729a317.7,317.7,0,0,0,44.349,3.484,228.72,228.72,0,0,0,43.166-3.719c14.372-2.79,28.206-6.507,42.86-8.369,15.96-2.028,32.094-3.038,48.211-3.954,45-2.554,90.176-3.316,135.279-3.794q41.239-.439,82.482-.4h-698Z" transform="translate(-15.643 -132.418)" fill="gray"/>
                </g>
            </svg>