<?xml version="1.0" standalone="no"?>
<!DOCTYPE svg PUBLIC "-//W3C//DTD SVG 20010904//EN"
 "http://www.w3.org/TR/2001/REC-SVG-20010904/DTD/svg10.dtd">
<svg version="1.0" xmlns="http://www.w3.org/2000/svg"
 width="640.000000pt" height="640.000000pt" viewBox="0 0 640.000000 640.000000"
 preserveAspectRatio="xMidYMid meet">
<metadata>
Created by potrace 1.14, written by Peter Selinger 2001-2017
</metadata>
<g transform="translate(0.000000,640.000000) scale(0.100000,-0.100000)"
fill="#000000" stroke="none">
<path d="M3188 6395 c-2 -2 -37 -6 -78 -9 -122 -10 -288 -36 -400 -62 -36 -9
-72 -17 -80 -19 -8 -1 -35 -9 -60 -16 -25 -7 -49 -13 -55 -15 -32 -7 -215 -68
-242 -80 -17 -8 -34 -14 -37 -14 -3 0 -28 -10 -54 -21 -26 -12 -63 -28 -82
-37 -61 -26 -194 -93 -205 -102 -7 -6 -15 -7 -18 -3 -4 3 -7 1 -7 -5 0 -7 -5
-12 -11 -12 -13 0 -134 -73 -254 -153 -294 -197 -632 -528 -815 -797 -8 -12
-23 -33 -33 -45 -9 -13 -17 -28 -17 -34 0 -6 -3 -11 -8 -11 -4 0 -18 -20 -32
-45 -14 -25 -28 -45 -32 -45 -5 0 -7 -3 -6 -7 1 -5 -5 -19 -14 -33 -42 -66
-88 -153 -88 -166 0 -7 -3 -14 -8 -14 -4 0 -17 -21 -29 -47 -12 -27 -33 -74
-47 -105 -15 -32 -27 -61 -28 -65 0 -5 -13 -37 -28 -73 -47 -111 -136 -400
-123 -400 3 0 1 -6 -4 -12 -6 -7 -13 -29 -17 -48 -3 -19 -8 -46 -11 -60 -11
-56 -37 -218 -41 -260 -3 -25 -9 -79 -13 -120 -9 -77 -6 -507 3 -570 3 -19 8
-60 12 -90 3 -30 7 -64 9 -75 2 -11 7 -36 10 -55 5 -29 35 -174 50 -242 18
-80 99 -333 128 -399 8 -19 20 -50 27 -69 18 -50 158 -330 181 -361 10 -15 19
-30 19 -33 0 -4 8 -19 19 -34 10 -15 40 -61 67 -102 27 -41 52 -79 56 -85 5
-5 29 -37 53 -70 110 -145 147 -187 300 -340 112 -112 205 -195 285 -255 18
-14 46 -35 61 -48 15 -12 31 -22 36 -22 5 0 15 -9 23 -20 8 -11 19 -20 24 -20
5 0 29 -15 55 -33 123 -88 352 -211 556 -298 61 -26 361 -126 395 -132 14 -2
32 -7 40 -10 19 -7 108 -27 140 -31 14 -2 36 -6 50 -9 26 -7 75 -15 125 -22
17 -3 48 -7 70 -10 182 -27 601 -27 795 0 14 2 49 6 79 10 30 3 57 8 60 10 4
2 25 6 47 9 51 8 81 14 102 20 9 3 28 7 42 10 130 25 384 109 550 182 93 40
332 163 351 180 8 8 19 14 23 14 4 0 27 14 51 30 24 17 48 30 54 30 6 0 11 3
11 8 0 4 21 20 48 36 26 17 61 41 79 55 18 14 42 34 55 43 173 131 360 310
508 489 78 93 150 188 150 198 0 5 4 11 9 13 9 3 105 149 137 208 10 19 24 42
31 50 10 13 2 21 -60 53 -40 21 -79 42 -87 47 -16 9 -158 87 -250 137 -30 17
-75 41 -100 55 -25 14 -70 39 -100 55 -30 17 -93 51 -139 77 -46 25 -86 46
-88 46 -3 0 -17 8 -31 18 -15 10 -70 41 -122 69 -52 28 -112 60 -132 72 -84
47 -109 61 -111 61 -2 0 -3 -98 -2 -217 0 -239 -9 -302 -58 -386 -27 -46 -112
-127 -134 -127 -6 0 -13 -5 -15 -10 -2 -6 -12 -12 -23 -14 -11 -2 -33 -10 -50
-17 -23 -9 -313 -12 -1260 -13 -676 -1 -1253 2 -1282 6 -115 14 -236 101 -284
204 -13 27 -23 51 -24 54 -1 3 -5 21 -9 40 -10 41 -12 2465 -2 2525 8 47 38
125 49 125 4 0 7 6 7 14 0 16 98 116 114 116 7 0 17 5 23 11 7 7 35 20 64 30
49 18 116 19 1303 19 1364 0 1294 3 1395 -57 58 -34 111 -90 142 -151 13 -26
24 -51 25 -57 14 -66 17 -113 17 -248 0 -178 -3 -173 81 -117 36 24 140 87
243 147 30 17 229 136 265 158 31 19 133 79 153 91 11 6 69 41 129 78 60 36
112 66 117 66 5 0 9 5 9 10 0 6 5 10 12 10 6 0 47 23 90 50 43 28 83 50 88 50
6 0 10 5 10 10 0 6 6 10 13 10 43 1 39 18 -33 136 -198 326 -452 615 -742 845
-57 44 -110 86 -118 92 -24 19 -231 152 -275 178 -84 48 -283 147 -360 178
-116 48 -295 111 -295 104 0 -3 -6 -1 -13 5 -7 6 -24 13 -37 15 -14 2 -32 7
-40 10 -13 5 -115 30 -175 43 -11 2 -31 6 -45 9 -26 6 -54 12 -105 20 -16 3
-41 7 -55 10 -14 3 -52 8 -85 11 -33 3 -76 8 -95 11 -40 5 -507 13 -512 8z"/>
</g>
</svg>
